<?xml version="1.0" encoding="UTF-8" standalone="no"?>
<!-- Created with Inkscape (http://www.inkscape.org/) -->

<svg
   xmlns:dc="http://purl.org/dc/elements/1.1/"
   xmlns:cc="http://creativecommons.org/ns#"
   xmlns:rdf="http://www.w3.org/1999/02/22-rdf-syntax-ns#"
   xmlns:svg="http://www.w3.org/2000/svg"
   xmlns="http://www.w3.org/2000/svg"
   xmlns:sodipodi="http://sodipodi.sourceforge.net/DTD/sodipodi-0.dtd"
   xmlns:inkscape="http://www.inkscape.org/namespaces/inkscape"
   id="svg2985"
   version="1.1"
   inkscape:version="0.48.4 r9939"
   width="270"
   height="180"
   xml:space="preserve"
   sodipodi:docname="SliceConcept.svg"><metadata
     id="metadata2991"><rdf:RDF><cc:Work
         rdf:about=""><dc:format>image/svg+xml</dc:format><dc:type
           rdf:resource="http://purl.org/dc/dcmitype/StillImage" /><dc:title></dc:title></cc:Work></rdf:RDF></metadata><defs
     id="defs2989"><clipPath
       clipPathUnits="userSpaceOnUse"
       id="clipPath3023"><path
         d="M 0,0 576,0 576,360 0,360 0,0 z"
         id="path3025"
         inkscape:connector-curvature="0" /></clipPath><clipPath
       clipPathUnits="userSpaceOnUse"
       id="clipPath3035"><path
         d="M 0,0 576,0 576,360 0,360 0,0 z"
         id="path3037"
         inkscape:connector-curvature="0" /></clipPath><clipPath
       clipPathUnits="userSpaceOnUse"
       id="clipPath3047"><path
         d="M 0,0 576,0 576,360 0,360 0,0 z"
         id="path3049"
         inkscape:connector-curvature="0" /></clipPath><clipPath
       clipPathUnits="userSpaceOnUse"
       id="clipPath3059"><path
         d="M 0,0 576,0 576,360 0,360 0,0 z"
         id="path3061"
         inkscape:connector-curvature="0" /></clipPath><clipPath
       clipPathUnits="userSpaceOnUse"
       id="clipPath3071"><path
         d="M 0,0 576,0 576,360 0,360 0,0 z"
         id="path3073"
         inkscape:connector-curvature="0" /></clipPath><clipPath
       clipPathUnits="userSpaceOnUse"
       id="clipPath3083"><path
         d="M 0,0 576,0 576,360 0,360 0,0 z"
         id="path3085"
         inkscape:connector-curvature="0" /></clipPath><clipPath
       clipPathUnits="userSpaceOnUse"
       id="clipPath3095"><path
         d="M 0,0 576,0 576,360 0,360 0,0 z"
         id="path3097"
         inkscape:connector-curvature="0" /></clipPath><clipPath
       clipPathUnits="userSpaceOnUse"
       id="clipPath3107"><path
         d="M 0,0 576,0 576,360 0,360 0,0 z"
         id="path3109"
         inkscape:connector-curvature="0" /></clipPath><clipPath
       clipPathUnits="userSpaceOnUse"
       id="clipPath3119"><path
         d="M 0,0 576,0 576,360 0,360 0,0 z"
         id="path3121"
         inkscape:connector-curvature="0" /></clipPath><clipPath
       clipPathUnits="userSpaceOnUse"
       id="clipPath3131"><path
         d="M 0,0 576,0 576,360 0,360 0,0 z"
         id="path3133"
         inkscape:connector-curvature="0" /></clipPath><clipPath
       clipPathUnits="userSpaceOnUse"
       id="clipPath3143"><path
         d="M 0,0 576,0 576,360 0,360 0,0 z"
         id="path3145"
         inkscape:connector-curvature="0" /></clipPath><clipPath
       clipPathUnits="userSpaceOnUse"
       id="clipPath3155"><path
         d="M 0,0 576,0 576,360 0,360 0,0 z"
         id="path3157"
         inkscape:connector-curvature="0" /></clipPath><clipPath
       clipPathUnits="userSpaceOnUse"
       id="clipPath3203"><path
         d="M 0,0 576,0 576,360 0,360 0,0 z"
         id="path3205"
         inkscape:connector-curvature="0" /></clipPath><clipPath
       clipPathUnits="userSpaceOnUse"
       id="clipPath3215"><path
         d="M 0,0 576,0 576,360 0,360 0,0 z"
         id="path3217"
         inkscape:connector-curvature="0" /></clipPath><clipPath
       clipPathUnits="userSpaceOnUse"
       id="clipPath3227"><path
         d="M 0,0 576,0 576,360 0,360 0,0 z"
         id="path3229"
         inkscape:connector-curvature="0" /></clipPath><clipPath
       clipPathUnits="userSpaceOnUse"
       id="clipPath3239"><path
         d="M 0,0 576,0 576,360 0,360 0,0 z"
         id="path3241"
         inkscape:connector-curvature="0" /></clipPath><clipPath
       clipPathUnits="userSpaceOnUse"
       id="clipPath3251"><path
         d="M 0,0 576,0 576,360 0,360 0,0 z"
         id="path3253"
         inkscape:connector-curvature="0" /></clipPath></defs><sodipodi:namedview
     pagecolor="#ffffff"
     bordercolor="#666666"
     borderopacity="1"
     objecttolerance="10"
     gridtolerance="10"
     guidetolerance="10"
     inkscape:pageopacity="0"
     inkscape:pageshadow="2"
     inkscape:window-width="1600"
     inkscape:window-height="838"
     id="namedview2987"
     showgrid="false"
     inkscape:zoom="1.4466667"
     inkscape:cx="360"
     inkscape:cy="142.05069"
     inkscape:window-x="-8"
     inkscape:window-y="-8"
     inkscape:window-maximized="1"
     inkscape:current-layer="g3269"
     units="in" /><g
     id="g2993"
     inkscape:groupmode="layer"
     inkscape:label="SliceConcept"
     transform="matrix(1.25,0,0,-1.25,0,180)"><g
       id="g3269"
       transform="matrix(0.39404362,0,0,0.39404362,-3.9202243,2.4847819)"><g
         transform="translate(257.6359,2.6657)"
         id="g2995"><path
           inkscape:connector-curvature="0"
           id="path2997"
           style="fill:none;stroke:#000000;stroke-width:1;stroke-linecap:butt;stroke-linejoin:round;stroke-miterlimit:10;stroke-opacity:1;stroke-dasharray:none"
           d="M 0,0 206.937,114.875" /></g><g
         transform="translate(26.6359,81.1657)"
         id="g2999"><path
           inkscape:connector-curvature="0"
           id="path3001"
           style="fill:none;stroke:#000000;stroke-width:1;stroke-linecap:butt;stroke-linejoin:round;stroke-miterlimit:10;stroke-opacity:1;stroke-dasharray:4, 3;stroke-dashoffset:0"
           d="M 0,0 206.937,114.875" /></g><g
         transform="translate(257.6359,2.6657)"
         id="g3003"><path
           inkscape:connector-curvature="0"
           id="path3005"
           style="fill:none;stroke:#000000;stroke-width:1;stroke-linecap:butt;stroke-linejoin:round;stroke-miterlimit:10;stroke-opacity:1;stroke-dasharray:none"
           d="M 0,0 -90.813,213.625" /></g><g
         transform="translate(464.5734,117.5406)"
         id="g3007"><path
           inkscape:connector-curvature="0"
           id="path3009"
           style="fill:none;stroke:#000000;stroke-width:1;stroke-linecap:butt;stroke-linejoin:round;stroke-miterlimit:10;stroke-opacity:1;stroke-dasharray:none"
           d="M 0,0 -88.75,212.75" /></g><g
         transform="translate(26.6359,81.1657)"
         id="g3011"><path
           inkscape:connector-curvature="0"
           id="path3013"
           style="fill:none;stroke:#000000;stroke-width:1;stroke-linecap:butt;stroke-linejoin:round;stroke-miterlimit:10;stroke-opacity:1;stroke-dasharray:none"
           d="M 0,0 89.188,152.125" /></g><g
         transform="translate(233.5734,196.0406)"
         id="g3015"><path
           inkscape:connector-curvature="0"
           id="path3017"
           style="fill:none;stroke:#000000;stroke-width:1;stroke-linecap:butt;stroke-linejoin:round;stroke-miterlimit:10;stroke-opacity:1;stroke-dasharray:4, 3;stroke-dashoffset:0"
           d="M 0,0 90.25,151.75" /></g><g
         id="g3019"><g
           clip-path="url(#clipPath3023)"
           id="g3021"><g
             transform="translate(257.4489,2.278)"
             id="g3027"><path
               inkscape:connector-curvature="0"
               id="path3029"
               style="fill:none;stroke:#000000;stroke-width:1;stroke-linecap:butt;stroke-linejoin:round;stroke-miterlimit:10;stroke-opacity:1;stroke-dasharray:none"
               d="m 0,0 c -40.517,-3.696 -122.415,17.694 -182.926,47.775 -21.302,10.59 -37.983,21.329 -48.004,30.903" /></g></g></g><g
         id="g3031"><g
           clip-path="url(#clipPath3035)"
           id="g3033"><g
             transform="translate(464.1038,117.278)"
             id="g3039"><path
               inkscape:connector-curvature="0"
               id="path3041"
               style="fill:none;stroke:#000000;stroke-width:1;stroke-linecap:butt;stroke-linejoin:round;stroke-miterlimit:10;stroke-opacity:1;stroke-dasharray:4, 3;stroke-dashoffset:0"
               d="m 0,0 c -40.517,-3.696 -122.415,17.694 -182.926,47.775 -21.302,10.59 -37.983,21.329 -48.004,30.903" /></g></g></g><g
         id="g3043"><g
           clip-path="url(#clipPath3047)"
           id="g3045"><g
             transform="translate(167.7032,215.8683)"
             id="g3051"><path
               inkscape:connector-curvature="0"
               id="path3053"
               style="fill:none;stroke:#000000;stroke-width:1;stroke-linecap:butt;stroke-linejoin:round;stroke-miterlimit:10;stroke-opacity:1;stroke-dasharray:none"
               d="m 0,0 c -9.125,-0.832 -27.569,3.985 -41.196,10.759 -4.797,2.385 -8.554,4.804 -10.811,6.96" /></g></g></g><g
         id="g3055"><g
           clip-path="url(#clipPath3059)"
           id="g3057"><g
             transform="translate(375.6472,330.4683)"
             id="g3063"><path
               inkscape:connector-curvature="0"
               id="path3065"
               style="fill:none;stroke:#000000;stroke-width:1;stroke-linecap:butt;stroke-linejoin:round;stroke-miterlimit:10;stroke-opacity:1;stroke-dasharray:none"
               d="m 0,0 c -9.125,-0.832 -27.569,3.985 -41.196,10.759 -4.797,2.385 -8.554,4.804 -10.811,6.96" /></g></g></g><g
         id="g3067"><g
           clip-path="url(#clipPath3071)"
           id="g3069"><g
             transform="translate(115.6962,233.5872)"
             id="g3075"><path
               inkscape:connector-curvature="0"
               id="path3077"
               style="fill:none;stroke:#000000;stroke-width:1;stroke-linecap:butt;stroke-linejoin:round;stroke-miterlimit:10;stroke-opacity:1;stroke-dasharray:none"
               d="M 0,0 207.944,114.6" /></g></g></g><g
         id="g3079"><g
           clip-path="url(#clipPath3083)"
           id="g3081"><g
             transform="translate(167.7032,215.8683)"
             id="g3087"><path
               inkscape:connector-curvature="0"
               id="path3089"
               style="fill:none;stroke:#000000;stroke-width:1;stroke-linecap:butt;stroke-linejoin:round;stroke-miterlimit:10;stroke-opacity:1;stroke-dasharray:none"
               d="M 0,0 207.944,114.6" /></g></g></g><g
         id="g3091"><g
           clip-path="url(#clipPath3095)"
           id="g3093"><g
             transform="translate(114.3859,33.2656)"
             id="g3099"><path
               inkscape:connector-curvature="0"
               id="path3101"
               style="fill:none;stroke:#ff0000;stroke-width:2.25;stroke-linecap:butt;stroke-linejoin:round;stroke-miterlimit:10;stroke-opacity:1;stroke-dasharray:9, 6.75;stroke-dashoffset:0"
               d="M 0,0 206.937,114.875" /></g></g></g><g
         id="g3103"><g
           clip-path="url(#clipPath3107)"
           id="g3105"><g
             transform="translate(139.3538,221.7281)"
             id="g3111"><path
               inkscape:connector-curvature="0"
               id="path3113"
               style="fill:none;stroke:#ff0000;stroke-width:2.25;stroke-linecap:butt;stroke-linejoin:round;stroke-miterlimit:10;stroke-opacity:1;stroke-dasharray:9, 6.75;stroke-dashoffset:0"
               d="M 0,0 206.937,114.875" /></g></g></g><g
         id="g3115"><g
           clip-path="url(#clipPath3119)"
           id="g3117"><g
             transform="translate(139.3539,221.7281)"
             id="g3123"><path
               inkscape:connector-curvature="0"
               id="path3125"
               style="fill:none;stroke:#ff0000;stroke-width:2.25;stroke-linecap:butt;stroke-linejoin:round;stroke-miterlimit:10;stroke-opacity:1;stroke-dasharray:9, 6.75;stroke-dashoffset:0"
               d="M 0,0 -24.968,-188.463" /></g></g></g><g
         id="g3127"><g
           clip-path="url(#clipPath3131)"
           id="g3129"><g
             transform="translate(346.2914,336.6032)"
             id="g3135"><path
               inkscape:connector-curvature="0"
               id="path3137"
               style="fill:none;stroke:#ff0000;stroke-width:2.25;stroke-linecap:butt;stroke-linejoin:round;stroke-miterlimit:10;stroke-opacity:1;stroke-dasharray:9, 6.75;stroke-dashoffset:0"
               d="M 0,0 -24.968,-188.463" /></g></g></g><g
         id="g3139"><g
           clip-path="url(#clipPath3143)"
           id="g3141"><g
             transform="translate(168.5447,177.6886)"
             id="g3147"><path
               inkscape:connector-curvature="0"
               id="path3149"
               style="fill:none;stroke:#0000ff;stroke-width:2;stroke-linecap:butt;stroke-linejoin:round;stroke-miterlimit:10;stroke-opacity:1;stroke-dasharray:none"
               d="m 0,0 c 11.273,-2.608 46.194,-5.373 59.977,-14.285 13.782,-8.911 3.252,-24.891 22.72,-39.184 17.914,-13.483 213.075,-74.094 240.127,-75.166" /></g></g></g><g
         id="g3151"><g
           clip-path="url(#clipPath3155)"
           id="g3153"><g
             transform="translate(211.2294,170.7857)"
             id="g3159"><path
               inkscape:connector-curvature="0"
               id="path3161"
               style="fill:#ff0000;fill-opacity:1;fill-rule:evenodd;stroke:none"
               d="M 0,0 C -0.14,1.097 0.581,2.106 1.609,2.255 2.026,2.316 2.45,2.226 2.813,1.999 3.197,2.772 4.096,3.065 4.82,2.655 4.947,2.583 5.063,2.492 5.165,2.385 5.464,3.025 6.194,3.286 6.794,2.966 6.961,2.878 7.106,2.75 7.218,2.592 7.701,3.198 8.554,3.273 9.124,2.759 9.363,2.543 9.524,2.246 9.58,1.917 10.371,1.687 10.838,0.816 10.622,-0.029 10.604,-0.1 10.581,-0.17 10.554,-0.238 11.189,-1.118 11.033,-2.38 10.207,-3.056 9.95,-3.267 9.647,-3.403 9.326,-3.452 9.318,-4.399 8.592,-5.161 7.703,-5.153 7.405,-5.151 7.115,-5.061 6.863,-4.893 6.562,-5.955 5.513,-6.556 4.519,-6.234 4.103,-6.099 3.743,-5.814 3.502,-5.428 2.485,-6.082 1.164,-5.73 0.553,-4.642 0.545,-4.628 0.538,-4.614 0.53,-4.6 c -0.665,-0.083 -1.268,0.423 -1.347,1.131 -0.041,0.377 0.076,0.755 0.32,1.032 -0.577,0.362 -0.77,1.156 -0.433,1.773 0.195,0.357 0.537,0.592 0.92,0.635 L 0,0 z" /></g></g></g><text
         id="text3163"
         transform="matrix(1,0,0,-1,74.6586,273.4928)"><tspan
           id="tspan3165"
           sodipodi:role="line"
           y="0"
           x="0 10.08072 17.872919 21.116159 31.19688 41.277599 49.799881 59.8806 72.36216 80.884438"
           style="font-size:14.03999996px;font-variant:normal;font-weight:normal;font-stretch:normal;writing-mode:lr-tb;fill:#000000;fill-opacity:1;fill-rule:nonzero;stroke:none;font-family:Times New Roman;-inkscape-font-specification:Times-Roman">US VOLUME </tspan></text>
<g
         transform="translate(115.1061,242.2821)"
         id="g3167"><path
           inkscape:connector-curvature="0"
           id="path3169"
           style="fill:none;stroke:#000000;stroke-width:0.75;stroke-linecap:butt;stroke-linejoin:round;stroke-miterlimit:10;stroke-opacity:1;stroke-dasharray:none"
           d="M 0,0 0,24.136" /></g><text
         id="text3171"
         transform="matrix(1,0,0,-1,13.7928,174.0595)"><tspan
           id="tspan3173"
           sodipodi:role="line"
           y="0"
           x="0 10.08072 18.603001 27.12528 37.206001 45.728279 54.250561"
           style="font-size:14.03999996px;font-variant:normal;font-weight:normal;font-stretch:normal;writing-mode:lr-tb;fill:#000000;fill-opacity:1;fill-rule:nonzero;stroke:none;font-family:Times New Roman;-inkscape-font-specification:Times-Roman">NEEDLE </tspan></text>
<g
         transform="translate(74.2604,178.4639)"
         id="g3175"><path
           inkscape:connector-curvature="0"
           id="path3177"
           style="fill:none;stroke:#000000;stroke-width:0.75;stroke-linecap:butt;stroke-linejoin:round;stroke-miterlimit:10;stroke-opacity:1;stroke-dasharray:none"
           d="M 0,0 90.174,0" /></g><g
         transform="translate(214.1621,318.254)"
         id="g3179"><path
           inkscape:connector-curvature="0"
           id="path3181"
           style="fill:none;stroke:#000000;stroke-width:0.75;stroke-linecap:butt;stroke-linejoin:round;stroke-miterlimit:10;stroke-opacity:1;stroke-dasharray:none"
           d="M 0,0 0,-139.152" /></g><text
         id="text3183"
         transform="matrix(1,0,0,-1,148.1082,342.2924)"><tspan
           id="tspan3185"
           sodipodi:role="line"
           y="0"
           x="0 10.08072 20.16144 27.95364 35.75988 44.282162 52.80444 62.169121 65.651039 75.015717 83.538002 91.3302 99.136436 109.21716 119.29788 127.10412 135.6264"
           style="font-size:14.03999996px;font-variant:normal;font-weight:normal;font-stretch:normal;writing-mode:lr-tb;fill:#000000;fill-opacity:1;fill-rule:nonzero;stroke:none;font-family:Times New Roman;-inkscape-font-specification:Times-Roman">DOPPLER RESPONSE </tspan><tspan
           id="tspan3187"
           sodipodi:role="line"
           y="16.80588"
           x="8.8732796 18.954 28.31868 38.399399 48.480122 58.560841 68.641563 72.36216 82.442879 90.965157 99.487442 109.56816 118.09044 126.61272"
           style="font-size:14.03999996px;font-variant:normal;font-weight:normal;font-stretch:normal;writing-mode:lr-tb;fill:#000000;fill-opacity:1;fill-rule:nonzero;stroke:none;font-family:Times New Roman;-inkscape-font-specification:Times-Roman">AROUND NEEDLE </tspan></text>
<g
         transform="translate(340.883,249.0321)"
         id="g3189"><path
           inkscape:connector-curvature="0"
           id="path3191"
           style="fill:none;stroke:#000000;stroke-width:0.75;stroke-linecap:butt;stroke-linejoin:round;stroke-miterlimit:10;stroke-opacity:1;stroke-dasharray:none"
           d="M 0,0 94.324,0" /></g><text
         id="text3193"
         transform="matrix(1,0,0,-1,447.8059,252.4714)"><tspan
           id="tspan3195"
           sodipodi:role="line"
           y="0"
           x="0 4.6753201 17.156879 27.2376 37.318321 45.840599"
           style="font-size:14.03999996px;font-variant:normal;font-weight:normal;font-stretch:normal;writing-mode:lr-tb;fill:#000000;fill-opacity:1;fill-rule:nonzero;stroke:none;font-family:Times New Roman;-inkscape-font-specification:Times-Roman">IMAGE </tspan><tspan
           id="tspan3197"
           sodipodi:role="line"
           y="16.80588"
           x="0.36504 8.1712799 16.69356 26.774281 36.855 45.377281"
           style="font-size:14.03999996px;font-variant:normal;font-weight:normal;font-stretch:normal;writing-mode:lr-tb;fill:#000000;fill-opacity:1;fill-rule:nonzero;stroke:none;font-family:Times New Roman;-inkscape-font-specification:Times-Roman">PLANE </tspan></text>
<g
         id="g3199"><g
           clip-path="url(#clipPath3203)"
           id="g3201"><g
             transform="translate(417.1871,60.6199)"
             id="g3207"><path
               inkscape:connector-curvature="0"
               id="path3209"
               style="fill:none;stroke:#000000;stroke-width:1;stroke-linecap:butt;stroke-linejoin:round;stroke-miterlimit:10;stroke-opacity:1;stroke-dasharray:none"
               d="M 0,0 C 0,14.912 12.088,27 27,27 41.912,27 54,14.912 54,0 54,-14.912 41.912,-27 27,-27 12.088,-27 0,-14.912 0,0 z" /></g></g></g><g
         id="g3211"><g
           clip-path="url(#clipPath3215)"
           id="g3213"><g
             transform="translate(458.3215,93.4907)"
             id="g3219"><path
               inkscape:connector-curvature="0"
               id="path3221"
               style="fill:none;stroke:#000000;stroke-width:0.25;stroke-linecap:butt;stroke-linejoin:round;stroke-miterlimit:10;stroke-opacity:1;stroke-dasharray:none"
               d="M 0,0 C 7.735,-2.605 13.877,-8.57 16.707,-16.226" /></g></g></g><g
         id="g3223"><g
           clip-path="url(#clipPath3227)"
           id="g3225"><g
             transform="translate(461.7343,96.0229)"
             id="g3231"><path
               inkscape:connector-curvature="0"
               id="path3233"
               style="fill:none;stroke:#000000;stroke-width:0.25;stroke-linecap:butt;stroke-linejoin:round;stroke-miterlimit:10;stroke-opacity:1;stroke-dasharray:none"
               d="M 0,0 C 7.735,-2.605 13.877,-8.57 16.707,-16.226" /></g></g></g><g
         id="g3235"><g
           clip-path="url(#clipPath3239)"
           id="g3237"><g
             transform="translate(429.7945,27.9447)"
             id="g3243"><path
               inkscape:connector-curvature="0"
               id="path3245"
               style="fill:none;stroke:#000000;stroke-width:0.25;stroke-linecap:butt;stroke-linejoin:round;stroke-miterlimit:10;stroke-opacity:1;stroke-dasharray:none"
               d="M 0,0 C -7.735,2.605 -13.877,8.57 -16.707,16.226" /></g></g></g><g
         id="g3247"><g
           clip-path="url(#clipPath3251)"
           id="g3249"><g
             transform="translate(426.3817,25.4126)"
             id="g3255"><path
               inkscape:connector-curvature="0"
               id="path3257"
               style="fill:none;stroke:#000000;stroke-width:0.25;stroke-linecap:butt;stroke-linejoin:round;stroke-miterlimit:10;stroke-opacity:1;stroke-dasharray:none"
               d="M 0,0 C -7.735,2.605 -13.877,8.57 -16.707,16.226" /></g></g></g><text
         id="text3259"
         transform="matrix(1,0,0,-1,507.9404,70.4598)"><tspan
           id="tspan3261"
           sodipodi:role="line"
           y="0"
           x="0 10.08072 20.16144 24.83676 34.201439 42.723721"
           style="font-size:14.03999996px;font-variant:normal;font-weight:normal;font-stretch:normal;writing-mode:lr-tb;fill:#000000;fill-opacity:1;fill-rule:nonzero;stroke:none;font-family:Times New Roman;-inkscape-font-specification:Times-Roman">VOICE </tspan><tspan
           id="tspan3263"
           sodipodi:role="line"
           y="16.80588"
           x="5.04036 14.40504 24.48576 29.161079 37.683361"
           style="font-size:14.03999996px;font-variant:normal;font-weight:normal;font-stretch:normal;writing-mode:lr-tb;fill:#000000;fill-opacity:1;fill-rule:nonzero;stroke:none;font-family:Times New Roman;-inkscape-font-specification:Times-Roman">COIL </tspan></text>
<g
         transform="translate(480.1159,67.0206)"
         id="g3265"><path
           inkscape:connector-curvature="0"
           id="path3267"
           style="fill:none;stroke:#000000;stroke-width:0.75;stroke-linecap:butt;stroke-linejoin:round;stroke-miterlimit:10;stroke-opacity:1;stroke-dasharray:none"
           d="M 0,0 16.735,0" /></g></g></g></svg>